<svg xmlns="http://www.w3.org/2000/svg" width="41" height="41" viewBox="0 0 41 41"><g data-name="그룹 639"><g data-name="패스 517" fill="#fff"><path d="M20.5 40.5a19.934 19.934 0 0 1-14.142-5.858A19.934 19.934 0 0 1 .5 20.5 19.934 19.934 0 0 1 6.358 6.358 19.934 19.934 0 0 1 20.5.5a19.934 19.934 0 0 1 14.142 5.858A19.934 19.934 0 0 1 40.5 20.5a19.934 19.934 0 0 1-5.858 14.142A19.934 19.934 0 0 1 20.5 40.5z"/><path d="M20.5 1A19.436 19.436 0 0 0 6.711 6.711 19.436 19.436 0 0 0 1 20.5a19.436 19.436 0 0 0 5.711 13.789A19.436 19.436 0 0 0 20.5 40a19.436 19.436 0 0 0 13.789-5.711A19.436 19.436 0 0 0 40 20.5a19.436 19.436 0 0 0-5.711-13.789A19.436 19.436 0 0 0 20.5 1m0-1C31.822 0 41 9.178 41 20.5S31.822 41 20.5 41 0 31.822 0 20.5 9.178 0 20.5 0z" fill="#ddd"/></g><path data-name="패스 100" d="M14.367 14.548l11.61 11.61" fill="none" stroke="#222" stroke-linecap="round" stroke-width="3"/><path data-name="패스 102" d="M25.977 14.549l-11.61 11.61" fill="none" stroke="#222" stroke-linecap="round" stroke-width="3"/><g data-name="그룹 1095"><g data-name="그룹 1094"><g data-name="그룹 1093"><g data-name="그룹 1092"><g data-name="그룹 1091"><g data-name="그룹 1090"><g data-name="그룹 1089"><g data-name="그룹 1088"><g data-name="그룹 1087"><g data-name="그룹 1086" fill="none" stroke="#222" stroke-linecap="round" stroke-width="3"><path data-name="패스 515" d="M15.366 14.548l11.61 11.61"/><path data-name="패스 516" d="M25.977 14.549l-11.61 11.61"/></g></g></g></g></g></g></g></g></g></g></g></svg>