<svg xmlns="http://www.w3.org/2000/svg" width="50" height="50" viewBox="0 0 50 50"><g data-name="그룹 1170"><g data-name="타원 124" fill="#fff" stroke="#ddd"><circle cx="25" cy="25" r="25" stroke="none"/><circle cx="25" cy="25" r="24.5" fill="none"/></g><path data-name="패스 305" d="M33.022 25.793a1.186 1.186 0 0 1 0-1.576l2.284-2.575a1.187 1.187 0 0 0 .14-1.381l-1.02-1.767a1.188 1.188 0 0 0-1.266-.57l-3.372.69a1.187 1.187 0 0 1-1.365-.787l-1.088-3.266a1.188 1.188 0 0 0-1.126-.812h-2.041a1.188 1.188 0 0 0-1.126.812l-1.088 3.266a1.187 1.187 0 0 1-1.365.787l-3.372-.69a1.188 1.188 0 0 0-1.266.57l-1.02 1.767a1.187 1.187 0 0 0 .14 1.381l2.284 2.575a1.186 1.186 0 0 1 0 1.576l-2.284 2.575a1.187 1.187 0 0 0-.14 1.381l1.02 1.767a1.188 1.188 0 0 0 1.266.57l3.372-.69a1.188 1.188 0 0 1 1.365.788l1.088 3.266a1.188 1.188 0 0 0 1.126.811h2.041a1.188 1.188 0 0 0 1.126-.811l1.088-3.266a1.188 1.188 0 0 1 1.365-.788l3.372.69a1.188 1.188 0 0 0 1.266-.57l1.02-1.767a1.187 1.187 0 0 0-.14-1.381zm-7.834 2.026a2.814 2.814 0 1 1 2.814-2.814 2.814 2.814 0 0 1-2.811 2.814z" fill="none" stroke="#000" stroke-miterlimit="10" stroke-width="2"/></g></svg>